<svg width="40" height="40" viewBox="0 0 40 40" fill="none" xmlns="http://www.w3.org/2000/svg">
<path d="M31.7417 12.335C32.3717 11.705 32.7184 10.8683 32.7184 9.97833C32.7184 9.08833 32.3717 8.25166 31.7417 7.62166L29.0984 4.97833C28.4684 4.34833 27.6317 4.00166 26.7417 4.00166C25.8517 4.00166 25.015 4.34833 24.3867 4.97666L6.66669 22.6417V30H14.0217L31.7417 12.335ZM26.7417 7.335L29.3867 9.97666L26.7367 12.6167L24.0934 9.975L26.7417 7.335ZM10 26.6667V24.025L21.7334 12.3283L24.3767 14.9717L12.645 26.6667H10ZM6.66669 33.3333H33.3334V36.6667H6.66669V33.3333Z" fill="#8E90A6"/>
</svg>
