<svg width="74" height="23" viewBox="0 0 74 23" fill="none" xmlns="http://www.w3.org/2000/svg">
<path d="M10.0247 9.11048H5.8451V17.5345C5.8451 18.3013 5.99175 18.8504 6.28505 19.182C6.5993 19.4929 7.07068 19.6587 7.69919 19.6794C8.32769 19.6794 9.10285 19.6586 10.0247 19.6172V22.0418C7.63634 22.3527 5.887 22.1662 4.77664 21.4823C3.66628 20.7777 3.1111 19.4618 3.1111 17.5345V9.11048H0V6.49934H3.1111V2.95566L5.8451 2.14745V6.49934H10.0247V9.11048Z" fill="#121E48"/>
<path d="M16.0875 9.11048C16.9884 7.18321 18.6225 6.21958 20.9899 6.21958V9.04831C19.6491 8.98614 18.4968 9.33844 17.5331 10.1052C16.5694 10.872 16.0875 12.105 16.0875 13.8043V22.0418H13.3535V6.49934H16.0875V9.11048Z" fill="#121E48"/>
<path d="M35.8157 6.49934H38.5497V22.0418H35.8157V19.3685C34.4539 21.4201 32.4742 22.4459 29.8763 22.4459C27.6766 22.4459 25.8015 21.6585 24.2512 20.0835C22.7009 18.4878 21.9257 16.5502 21.9257 14.2706C21.9257 11.991 22.7009 10.0638 24.2512 8.48878C25.8015 6.89309 27.6766 6.09524 29.8763 6.09524C32.4742 6.09524 34.4539 7.12104 35.8157 9.17265V6.49934ZM30.222 19.8348C31.8142 19.8348 33.1446 19.3064 34.213 18.2495C35.2815 17.1719 35.8157 15.8456 35.8157 14.2706C35.8157 12.6956 35.2815 11.3797 34.213 10.3228C33.1446 9.24518 31.8142 8.70638 30.222 8.70638C28.6508 8.70638 27.3309 9.24518 26.2624 10.3228C25.194 11.3797 24.6597 12.6956 24.6597 14.2706C24.6597 15.8456 25.194 17.1719 26.2624 18.2495C27.3309 19.3064 28.6508 19.8348 30.222 19.8348Z" fill="#121E48"/>
<path d="M50.0769 22.4459C47.7095 22.4459 45.7402 21.6688 44.1689 20.1146C42.5977 18.5396 41.812 16.5916 41.812 14.2706C41.812 11.9496 42.5977 10.0119 44.1689 8.4577C45.7402 6.88273 47.7095 6.09524 50.0769 6.09524C51.6272 6.09524 53.0204 6.46826 54.2564 7.2143C55.4925 7.93961 56.4143 8.92397 57.0219 10.1674L54.7278 11.4729C54.3298 10.644 53.7117 9.98086 52.8737 9.4835C52.0567 8.98614 51.1244 8.73746 50.0769 8.73746C48.5056 8.73746 47.1858 9.26591 46.1173 10.3228C45.0698 11.3797 44.546 12.6956 44.546 14.2706C44.546 15.8248 45.0698 17.1304 46.1173 18.1873C47.1858 19.2442 48.5056 19.7726 50.0769 19.7726C51.1244 19.7726 52.0672 19.5343 52.9052 19.0577C53.7432 18.5603 54.3821 17.8972 54.8221 17.0682L57.1476 18.4049C56.4772 19.6276 55.5135 20.6119 54.2564 21.358C52.9994 22.0833 51.6063 22.4459 50.0769 22.4459Z" fill="#121E48"/>
<path d="M73.1398 22.0418H69.7459L62.581 14.6747V22.0418H59.847V0.282349H62.581V13.3691L69.3688 6.49934H72.8884L65.3778 14.0219L73.1398 22.0418Z" fill="#121E48"/>
</svg>
